<svg xmlns="http://www.w3.org/2000/svg" viewBox="0 0 329.94 196.26"><defs><style>.cls-1{fill:#fff;}.cls-2,.cls-6{fill:#e94e1b;}.cls-3{fill:#1d1d1b;}.cls-4{fill:#575756;}.cls-5{fill:#585857;}.cls-6{stroke:#1d1d1b;stroke-miterlimit:10;}</style></defs><g id="Capa_2" data-name="Capa 2"><g id="Capa_1-2" data-name="Capa 1"><path class="cls-1" d="M83.61,0H90q103.22,0,206.42,0a89.77,89.77,0,0,1,14.18.72c12.11,2,19.24,8.36,19.28,16.86.07,17.16,0,34.32,0,51.48q0,54,0,108.07,0,19-31.2,19H83.61Z"/><path class="cls-2" d="M74,196.13c-14.14,0-27.8.34-41.42-.1-11.21-.37-19.53-7.38-19.77-15.61-.1-3.5,0-7,0-10.66l-12-.84c2.48-4.66,11.22.91,12.08-5.65-3.22,0-6,.14-8.75-.07-1-.07-1.89-.95-2.82-1.46,1-.48,1.92-1.29,3-1.37,2.6-.2,5.24-.06,8.15-.06V136.08A59.53,59.53,0,0,1,5.76,136a21.19,21.19,0,0,1-4.36-1.49c1.37-.43,2.69-1,4.11-1.26.93-.19,2.11.18,3-.08a39.36,39.36,0,0,0,4.32-1.82,18.56,18.56,0,0,0-4.12-1.56c-2.41-.33-4.92-.27-7.39-.38l-.17-1.88,11.29-1v-23.9c-2.78,0-5.57.14-8.31-.07-1-.07-1.81-1-2.71-1.51.87-.45,1.69-1.24,2.6-1.3,2.78-.17,5.59-.06,8.26-.06,1.57-3.54-1.25-3.42-4.1-3.45-2.29,0-4.58-.25-6.87-.38l-.05-1.7c2.54-.19,5.13-.2,7.59-.62,1.43-.24,3.76-1.12,3.78-1.75.27-7.39.17-14.79.17-22.69-3.23,0-6,.1-8.76-.06a7.9,7.9,0,0,1-2.62-1.2c.81-.49,1.55-1.32,2.43-1.42,2.12-.22,4.36.07,6.47-.2.92-.11,1.65-1.06,2.47-1.63-.85-.54-1.62-1.44-2.57-1.56-1.94-.26-4,.07-6-.18-1-.13-1.88-1-2.82-1.5a9.12,9.12,0,0,1,2.74-1.12c2.63-.16,5.28-.06,8.3-.06V36.13l-11.18-.9V33.58c2.7-.17,5.4-.49,8.09-.48,3.41,0,4-1.1,2.87-3.5-2.61,0-5.27.14-7.87-.06-1-.08-2-.89-3-1.37.93-.51,1.81-1.38,2.81-1.45,2.61-.21,5.28-.07,8.62-.07,0-3.52,0-6.77,0-10C12.94,7.12,21.41.44,34.42.15c12.49-.27,25-.09,37.5-.09A15.11,15.11,0,0,1,74,.38Zm-45-102.88,10.38,1.07c-.94,1.05-1.1,1.41-1.3,1.43-3.1.21-6.23.26-9.29.64-1,.12-1.73,1.08-2.59,1.65.86.55,1.64,1.47,2.58,1.57,2.29.23,4.67-.06,7,.16,1,.1,2,.92,2.93,1.41-1,.5-1.83,1.31-2.85,1.42-2.11.22-4.3.06-7.39.06,6.25,4,12,4,16.29.63,4-3.1,3.76-7.8-.44-10.8S34.2,89.58,29.07,93.25Zm-.69,67.06c3.22,0,5.39-.15,7.48.07,1,.11,1.92.92,2.87,1.41-.95.49-1.85,1.36-2.85,1.42-3.08.19-6.2.07-9.08.07-1.24,2.84.26,3.5,3.27,3.47s5.87.21,8.8.33l.1,1.73-9.6,1a12.42,12.42,0,0,0,14.49,1.07c4.42-2.77,5-7.49,1.39-10.73C41.09,156.43,35.06,156.22,28.38,160.31Zm.9-124.24a12.43,12.43,0,0,0,15.31.6c4.24-3.2,4.08-8-.36-11a12.28,12.28,0,0,0-15,1c2.69,0,5-.13,7.17.07.85.08,1.57.92,2.35,1.41-.8.49-1.52,1.29-2.4,1.39-1.95.22-4-.11-5.95.16a19.35,19.35,0,0,0-4.09,1.5c1.44.63,2.79,1.58,4.34,1.8,2.69.39,5.51.34,8.28.47L39,35.19Zm-.11,90.87a48.51,48.51,0,0,1,6.25.07,12.19,12.19,0,0,1,3.31,1.52,12.83,12.83,0,0,1-3.18,1.16c-2,.19-4-.17-5.95.13-1.23.2-2.22,1.16-3.32,1.78,1,.54,2,1.4,3.13,1.55,1.93.26,4-.09,5.95.15a12.45,12.45,0,0,1,3.35,1.39A15.41,15.41,0,0,1,35.18,136a55,55,0,0,1-6.28.06c5.27,3.92,11.2,4.06,15.49.92,4.52-3.31,4.36-8.18-.36-11.27C39.64,122.85,33.78,123.15,29.17,126.94Zm-.81-57.79c4.45,3.36,8.44,4.08,13,2.56,4.22-1.39,6.84-4.85,6.2-8-.69-3.41-4.45-6.32-9.17-6.78a11.37,11.37,0,0,0-9.67,3.26c3.11,0,5.28-.12,7.41.06a8,8,0,0,1,2.55,1.24c-.81.49-1.57,1.33-2.44,1.4-2.47.21-5,0-7.46.19-.92.09-1.69,1-2.53,1.61.87.55,1.65,1.45,2.62,1.58,1.93.25,4-.11,5.95.15a17,17,0,0,1,3.87,1.51,18.74,18.74,0,0,1-3.68,1.17C33.3,69.3,31.47,69.15,28.36,69.15Z"/><rect class="cls-3" x="0.87" y="26.53" width="38.02" height="3.65" rx="1.83"/><rect class="cls-3" x="0.87" y="32.53" width="38.58" height="3.65" rx="1.83"/><rect class="cls-3" x="0.87" y="59.83" width="38.02" height="3.65" rx="1.83"/><rect class="cls-3" x="0.87" y="65.84" width="38.58" height="3.65" rx="1.83"/><rect class="cls-3" x="0.87" y="93.3" width="39.01" height="3.65" rx="1.83"/><rect class="cls-3" x="0.87" y="99.3" width="39.58" height="3.65" rx="1.83"/><rect class="cls-3" x="0.87" y="126.77" width="38.23" height="3.65" rx="1.83"/><rect class="cls-3" x="0.87" y="132.77" width="38.79" height="3.65" rx="1.83"/><rect class="cls-3" y="160.17" width="39.09" height="3.65" rx="1.83"/><rect class="cls-3" y="166.18" width="39.66" height="3.65" rx="1.83"/><path class="cls-4" d="M166.71,97.49h-5.48l-.93-5.44h-9.4l-2.46,5.44H143l11.27-25.36h8.41ZM153.33,86.62h6.07l-1.73-9.06Z"/><path class="cls-4" d="M175,90.24a3.19,3.19,0,0,0,0,.42c0,.93.53,1.39,1.6,1.39h3.66a1.88,1.88,0,0,0,2.08-1.81l.39-2.72h-3.66l.77-5.43H189l-1.15,8.15q-1,7.24-8.33,7.25h-3.65q-6.42,0-6.42-5.58a12.58,12.58,0,0,1,.13-1.67l1.55-10.87c.69-4.83,3.46-7.24,8.34-7.24h11l-.77,5.43h-11a1.88,1.88,0,0,0-2.08,1.81Z"/><path class="cls-4" d="M209.09,82.09l-.77,5.43h-11l-.64,4.53h11l-.77,5.44H190.47l3.59-25.36h16.45l-.77,5.43h-11l-.66,4.53Z"/><path class="cls-4" d="M219.65,72.13l6.94,15.39,2.19-15.39h5.49l-3.6,25.36h-5.49l-7-15.4-2.17,15.4h-5.49l3.61-25.36Z"/><path class="cls-4" d="M248.88,72.13q6.42,0,6.42,5.58a11,11,0,0,1-.13,1.66l-1.55,10.87c-.69,4.83-3.46,7.25-8.34,7.25h-11l3.6-25.36Zm.81,7.24a3,3,0,0,0,0-.41c0-.93-.54-1.4-1.61-1.4h-5.48l-2.07,14.49h5.48a1.9,1.9,0,0,0,2.09-1.81Z"/><path class="cls-2" d="M222.33,152.25l.39-2.78h2.8l-.39,2.78Z"/><path class="cls-4" d="M230,148.54a.86.86,0,0,0,0,.22c0,.47.25.71.76.71h3.48l-.36,2.78h-3.48q-3.06,0-3.06-2.85a6.67,6.67,0,0,1,.06-.86l.25-1.85c.33-2.48,1.65-3.71,4-3.71h3.49l-.38,2.78h-3.48a.92.92,0,0,0-1,.93Z"/><path class="cls-4" d="M244,148.54c-.33,2.48-1.65,3.71-4,3.71h-.87q-3.06,0-3.06-2.85a6.77,6.77,0,0,1,.07-.86l.24-1.85c.33-2.48,1.66-3.71,4-3.71h.87c2,0,3,.94,3,2.84a6.82,6.82,0,0,1-.06.87Zm-5.22,0a.86.86,0,0,0,0,.22c0,.47.25.71.76.71h.87a.93.93,0,0,0,1-.93l.24-1.85a1.21,1.21,0,0,0,0-.19c0-.43-.26-.65-.77-.65H240a.88.88,0,0,0-1,.84Z"/><path class="cls-4" d="M248.87,143l0,.93a2,2,0,0,1,1.87-.93,2.06,2.06,0,0,1,2.06,1.2A4.25,4.25,0,0,1,256,143c2.06,0,3.1.85,3.1,2.57a4.06,4.06,0,0,1-.06.67l-.79,6h-2.61l.73-5.56a.86.86,0,0,0,0-.15c0-.52-.4-.78-1.19-.78s-1.35.31-1.43.93l-.73,5.56h-2.61l.75-5.65s0-.1,0-.14c0-.47-.35-.7-1-.7a1.77,1.77,0,0,0-1.6.93l-.73,5.56h-2.61l1.23-9.27Z"/><path class="cls-2" d="M260.07,152.25l.39-2.78h2.8l-.39,2.78Z"/><path class="cls-5" d="M271,145.57h-3.6l.48-2.59h3.6q5.29,0,5.3,3.34a6,6,0,0,1-.08.92l-.91,5h-3.36l-.11-.74a3.46,3.46,0,0,1-2.53.74h-1.2q-3.15,0-3.15-2.19a4.36,4.36,0,0,1,.07-.68q.53-2.88,4.12-2.88h1.2c1.2,0,2,.25,2.27.74a2.16,2.16,0,0,0,0-.35Q273.15,145.57,271,145.57Zm-.81,4.46a4.74,4.74,0,0,0,2.49-.47l.09-.55a3.76,3.76,0,0,0-2.31-.47c-.8,0-1.25.25-1.33.75a.59.59,0,0,0,0,.13C269.13,149.83,269.49,150,270.21,150Z"/><path class="cls-5" d="M281.81,152.25h-3.6L279.9,143h3.36l.09.74a3.58,3.58,0,0,1,2.55-.74h1.2l-.52,2.78h-1.2a4.8,4.8,0,0,0-2.48.46Z"/><path class="cls-6" d="M145.15,121.56h7.14l-3.36,15.06h-6.66l-.21-1.2q-1.45,1.2-5,1.2-8.34,0-8.35-4.64a6.34,6.34,0,0,1,.17-1.38l2-9H138l-2,9a1,1,0,0,0-.05.34c0,.78.69,1.16,2.09,1.16a11.15,11.15,0,0,0,4.92-.75Z"/><path class="cls-6" d="M160.82,136.62h-7.13L157,121.56h6.66l.19,1.2q1.47-1.2,5-1.2h2.38l-1,4.52h-2.38a11.15,11.15,0,0,0-4.92.75Z"/><path class="cls-6" d="M182,121.56l-3.35,15.06h-7.14l3.36-15.06Zm1.33-6-1,4.52h-7.14l1-4.52Z"/><path class="cls-6" d="M183.42,136.62l.83-3.77h11.41c1.11,0,1.74-.3,1.88-.9a.89.89,0,0,0,0-.22c0-.56-.5-.83-1.48-.83h-4.28q-6.33,0-6.33-3.21a4.46,4.46,0,0,1,.1-.86l.29-1.21q.9-4.07,8-4.06h11.89l-.85,3.76H194.71c-1.11,0-1.73.3-1.85.91a.35.35,0,0,0,0,.13c0,.41.51.62,1.53.62h4.28q6.27,0,6.27,3.39a5.07,5.07,0,0,1-.11,1l-.27,1.2q-.9,4.08-8,4.07Z"/><path class="cls-6" d="M220.42,130.6a1.4,1.4,0,0,0,0,.34c0,.78.7,1.16,2.1,1.16H226l-1,4.52h-3.56q-8.35,0-8.35-4.64a5.78,5.78,0,0,1,.17-1.38l1-4.52h-3.56l1-4.52h3.57l1-4.52,7.46-1.51-1.33,6h5.95l-1,4.52h-5.94Z"/><path class="cls-6" d="M240.28,121.56l-3.36,15.06h-7.13l3.35-15.06Zm1.33-6-1,4.52h-7.13l1-4.52Z"/><path class="cls-6" d="M250.15,130.6a1.4,1.4,0,0,0-.05.34c0,.78.7,1.16,2.09,1.16h9.52l-1,4.52h-9.52q-8.34,0-8.34-4.64a6.29,6.29,0,0,1,.16-1.38l.67-3q1.35-6,10.87-6h9.51l-1,4.52h-9.52c-1.58,0-2.49.5-2.71,1.5Z"/><path class="cls-6" d="M277.38,125.77h-7.14l.95-4.21h7.14q10.51,0,10.51,5.42a7.59,7.59,0,0,1-.17,1.51l-1.8,8.13h-6.66l-.22-1.2c-1,.8-2.64,1.2-5,1.2H272.6c-4.16,0-6.23-1.18-6.23-3.55a4.57,4.57,0,0,1,.14-1.12q1-4.66,8.16-4.67H277c2.38,0,3.88.4,4.5,1.21a2.36,2.36,0,0,0,.07-.58C281.61,126.49,280.2,125.77,277.38,125.77Zm-1.6,7.24a11.2,11.2,0,0,0,4.93-.76l.19-.9c-.68-.5-2.22-.75-4.59-.75q-2.38,0-2.64,1.2a1,1,0,0,0,0,.23C273.64,132.68,274.36,133,275.78,133Z"/><path class="cls-4" d="M290.28,108.7h-8.57l-1.46-8.61H265.57l-3.86,8.61h-8.57l17.63-40.17h13.14Zm-10-8.61-4.11-23-10.57,23"/><path class="cls-2" d="M252.77,96c2.83-4.43,10.44-5.42,15.22-2.08a46.26,46.26,0,0,1,5.08,4.65c9.27-8.44,19.42-16.28,34.09-20.55l.58.41a6.31,6.31,0,0,1-1,.88c-11.21,6.57-19.32,14.75-26.38,23.47-2.17,2.68-4.15,5.42-6.29,8.11a8.81,8.81,0,0,1-1.67,1.23,10.63,10.63,0,0,1-1.42-1.19c-2.72-3.36-5.25-6.79-8.12-10.09A13,13,0,0,0,252.77,96Z"/><path class="cls-6" d="M249.69,100.26l-1.9,9.16H129.93l-7,33.57H109.31l7-33.57H100.48l1.9-9.16Z"/></g></g></svg>