<?xml version="1.0" standalone="no"?>
<!DOCTYPE svg PUBLIC "-//W3C//DTD SVG 20010904//EN"
 "http://www.w3.org/TR/2001/REC-SVG-20010904/DTD/svg10.dtd">
<svg version="1.0" xmlns="http://www.w3.org/2000/svg"
 width="148.000000pt" height="137.000000pt" viewBox="0 0 148.000000 137.000000"
 preserveAspectRatio="xMidYMid meet">

<g transform="translate(0.000000,137.000000) scale(0.100000,-0.100000)"
fill="#000000" stroke="none">
<path d="M1170 1232 c0 -5 16 -62 35 -128 19 -65 35 -120 35 -121 0 -2 -7 -3
-16 -3 -26 0 -72 -54 -79 -94 -16 -85 64 -119 124 -51 39 45 39 71 1 200 -16
55 -30 103 -30 108 0 18 35 4 67 -28 20 -20 38 -34 40 -32 2 3 -4 23 -12 45
-14 33 -26 45 -63 62 -26 12 -59 28 -74 36 -16 8 -28 11 -28 6z"/>
<path d="M411 1061 c-66 -111 -66 -111 -25 -188 20 -38 65 -118 100 -179 35
-62 64 -120 64 -129 0 -10 -31 -52 -68 -94 -38 -42 -73 -85 -79 -96 -15 -28
-83 -278 -83 -304 0 -18 6 -21 40 -21 51 0 59 13 96 155 l29 110 79 80 c45 45
81 74 84 67 6 -18 -27 -204 -54 -301 -13 -46 -21 -88 -18 -93 3 -4 23 -8 45
-8 48 0 41 -15 108 238 76 285 76 273 -1 405 -36 61 -35 75 5 123 66 79 91
119 119 187 34 83 34 95 6 106 -35 13 -44 5 -68 -62 -30 -81 -57 -122 -113
-174 -44 -40 -50 -43 -105 -43 -32 0 -65 6 -74 13 -19 14 -68 92 -68 107 0 6
18 40 41 75 34 54 39 68 29 80 -25 30 -47 16 -89 -54z"/>
<path d="M553 1065 c-38 -16 -53 -42 -53 -90 0 -51 36 -85 90 -85 104 0 139
137 45 175 -41 18 -42 18 -82 0z"/>
<path d="M940 1057 c0 -7 9 -59 20 -117 26 -135 26 -136 -9 -143 -64 -13 -99
-120 -52 -158 13 -11 32 -19 42 -19 27 0 87 57 94 89 3 16 -3 79 -15 141 -12
62 -19 115 -16 118 12 11 56 -19 73 -50 16 -30 18 -31 21 -11 5 33 -19 74 -55
98 -95 60 -103 64 -103 52z"/>
<path d="M1100 707 c0 -6 9 -59 20 -117 26 -135 26 -136 -9 -143 -64 -13 -99
-120 -52 -158 13 -11 32 -19 42 -19 27 0 87 57 94 89 3 16 -3 79 -15 141 -12
62 -19 115 -16 118 12 11 56 -18 71 -48 20 -39 30 -33 21 13 -7 39 -33 66 -93
96 -24 12 -43 26 -43 31 0 6 -4 10 -10 10 -5 0 -10 -6 -10 -13z"/>
</g>
</svg>
